# xmcd CD database file
#
# Track frame offsets:
#	150
#	28993
#	60598
#	90475
#	131711
#	164172
#	194388
#	213920
#	256803
#	277581
#	301045
#	328705
#
# Disc length: 4543 seconds
#
# Revision: 0
# Processed by: cddbd v1.5.2PL0 Copyright (c) Steve Scherf et al.
# Submitted via: CDex 1.70beta2
#
DISCID=a411bd0c
DTITLE=Charlie Mariano - Deep In A Dream
DYEAR=2002
DGENRE=Jazz
TTITLE0=You Better Go Now
TTITLE1=Dew Drops
TTITLE2=Spring Is Here
TTITLE3=I'm A Fool To Want You
TTITLE4=I Only Miss Her When I Think Of Her
TTITLE5=The Touch Of Your Lips
TTITLE6=Etosha
TTITLE7=Close Enough For Love
TTITLE8=Yours Is My Heart Alone
TTITLE9=Deep In A Dream
TTITLE10=Deep River
TTITLE11=Zana
EXTD=YEAR: 2002
EXTT0=
EXTT1=
EXTT2=
EXTT3=
EXTT4=
EXTT5=
EXTT6=
EXTT7=
EXTT8=
EXTT9=
EXTT10=
EXTT11=
PLAYORDER=
